<?xml version="1.0" standalone="no"?>
<!DOCTYPE svg PUBLIC "-//W3C//DTD SVG 20010904//EN"
 "http://www.w3.org/TR/2001/REC-SVG-20010904/DTD/svg10.dtd">
<svg version="1.0" xmlns="http://www.w3.org/2000/svg"
 width="2644.000000pt" height="946.000000pt" viewBox="0 0 2644.000000 946.000000"
 preserveAspectRatio="xMidYMid meet">

<g transform="translate(0.000000,946.000000) scale(0.100000,-0.100000)"
fill="#000000" stroke="none">
<path d="M12140 8310 c0 -33 -3 -40 -20 -40 -18 0 -20 -7 -20 -85 l0 -85 -35
0 -35 0 0 -180 0 -180 35 0 c35 0 35 0 35 -45 l0 -45 -115 0 -115 0 0 -45 c0
-45 0 -45 -35 -45 l-35 0 0 -90 0 -90 35 0 c34 0 35 -1 35 -40 l0 -40 -70 0
-70 0 0 40 0 40 -45 0 -45 0 0 45 c0 41 -2 45 -25 45 -23 0 -25 4 -25 45 l0
45 -45 0 -45 0 0 90 0 90 -35 0 c-34 0 -35 1 -35 40 l0 40 -45 0 -45 0 0 55 0
55 -35 0 c-33 0 -35 2 -35 35 0 34 -1 35 -40 35 l-40 0 0 50 0 50 -270 0 -270
0 0 -50 0 -50 -40 0 c-39 0 -40 -1 -40 -35 0 -33 -2 -35 -35 -35 l-35 0 0 -95
0 -95 -4245 0 -4245 0 0 40 c0 38 2 40 30 40 l30 0 0 140 0 140 -30 0 c-29 0
-30 1 -30 50 l0 50 -155 0 -155 0 0 -50 0 -50 -40 0 -40 0 0 -50 0 -50 -40 0
c-39 0 -40 -1 -40 -35 0 -34 -1 -35 -40 -35 l-40 0 0 -55 0 -55 -35 0 -35 0 0
55 0 55 -40 0 c-39 0 -40 1 -40 35 0 33 -2 35 -35 35 -33 0 -35 -2 -35 -35 0
-34 -1 -35 -40 -35 l-40 0 0 -55 0 -55 -195 0 -195 0 0 -40 0 -40 -70 0 -70 0
0 -45 0 -45 70 0 70 0 0 -45 0 -45 195 0 195 0 0 -45 0 -45 40 0 40 0 0 -45
c0 -45 0 -45 35 -45 35 0 35 0 35 45 l0 45 40 0 40 0 0 45 c0 45 0 45 35 45
35 0 35 0 35 -45 l0 -45 40 0 40 0 0 -45 0 -45 40 0 40 0 0 -40 0 -40 40 0 40
0 0 -55 0 -55 155 0 155 0 0 55 c0 54 0 55 30 55 l30 0 0 130 0 130 -30 0
c-29 0 -30 2 -30 45 l0 45 4245 0 4245 0 0 -135 0 -135 35 0 35 0 0 -95 0 -95
80 0 80 0 0 -35 0 -35 150 0 150 0 0 35 c0 34 1 35 40 35 l40 0 0 55 0 55 40
0 40 0 0 175 0 175 -40 0 -40 0 0 45 0 45 -40 0 -40 0 0 40 0 40 -110 0 -110
0 0 -40 0 -40 -40 0 -40 0 0 -180 0 -180 75 0 75 0 0 45 c0 45 0 45 -35 45
l-35 0 0 90 0 90 35 0 c35 0 35 0 35 45 l0 45 40 0 40 0 0 -45 c0 -45 0 -45
35 -45 35 0 35 0 35 -45 l0 -45 40 0 40 0 0 -90 0 -90 -40 0 -40 0 0 -40 c0
-39 -1 -40 -35 -40 -34 0 -35 -1 -35 -40 l0 -40 -75 0 -75 0 0 40 0 40 -80 0
-80 0 0 85 0 85 -40 0 -40 0 0 175 0 175 40 0 40 0 0 55 0 55 40 0 c39 0 40 1
40 35 l0 35 190 0 190 0 0 -35 c0 -34 1 -35 40 -35 l40 0 0 -55 0 -55 40 0 40
0 0 -40 c0 -39 1 -40 35 -40 35 0 35 0 35 -45 l0 -45 45 0 45 0 0 -90 0 -90
35 0 c35 0 35 0 35 -45 l0 -45 45 0 45 0 0 -40 c0 -36 3 -40 25 -40 24 0 25
-3 25 -55 l0 -55 45 0 c45 0 45 0 45 -35 l0 -35 185 0 185 0 0 35 0 35 80 0
80 0 0 -35 0 -35 195 0 195 0 0 35 c0 33 2 35 35 35 l35 0 0 55 0 55 35 0 c34
0 35 1 35 40 l0 40 45 0 45 0 0 45 c0 41 2 45 25 45 23 0 25 4 25 45 l0 45 45
0 45 0 0 90 0 90 35 0 c34 0 35 1 35 40 l0 40 45 0 45 0 0 55 0 55 35 0 c33 0
35 2 35 35 l0 35 195 0 195 0 0 -35 c0 -33 2 -35 35 -35 l35 0 0 -55 0 -55 40
0 40 0 0 -220 0 -220 -40 0 -40 0 0 -40 0 -40 -75 0 -75 0 0 -40 0 -40 -75 0
-75 0 0 40 0 40 -40 0 -40 0 0 40 0 40 -40 0 -40 0 0 90 0 90 40 0 40 0 0 45
0 45 40 0 40 0 0 45 0 45 40 0 40 0 0 -45 c0 -45 0 -45 35 -45 l35 0 0 -90 0
-90 -35 0 c-35 0 -35 0 -35 -45 l0 -45 75 0 75 0 0 45 c0 45 0 45 35 45 l35 0
0 90 0 90 -35 0 c-35 0 -35 0 -35 45 l0 45 -40 0 -40 0 0 40 0 40 -115 0 -115
0 0 -40 0 -40 -40 0 -40 0 0 -45 c0 -45 0 -45 -35 -45 l-35 0 0 -175 0 -175
35 0 35 0 0 -55 0 -55 40 0 c39 0 40 -1 40 -35 l0 -35 155 0 155 0 0 35 0 35
75 0 75 0 0 55 0 55 40 0 40 0 0 175 0 175 4205 0 4205 0 0 -45 c0 -43 -1 -45
-30 -45 l-30 0 0 -130 0 -130 30 0 c30 0 30 -1 30 -55 l0 -55 155 0 155 0 0
55 0 55 40 0 40 0 0 40 0 40 40 0 40 0 0 45 0 45 40 0 40 0 0 45 c0 45 0 45
35 45 35 0 35 0 35 -45 l0 -45 40 0 40 0 0 -45 c0 -45 0 -45 35 -45 35 0 35 0
35 45 l0 45 40 0 40 0 0 45 0 45 195 0 195 0 0 45 0 45 70 0 70 0 0 45 0 45
-70 0 -70 0 0 40 0 40 -195 0 -195 0 0 55 0 55 -40 0 c-39 0 -40 1 -40 35 0
33 -2 35 -35 35 -33 0 -35 -2 -35 -35 0 -34 -1 -35 -40 -35 l-40 0 0 -55 0
-55 -35 0 -35 0 0 55 0 55 -40 0 c-39 0 -40 1 -40 35 0 34 -1 35 -40 35 l-40
0 0 50 0 50 -40 0 -40 0 0 50 0 50 -155 0 -155 0 0 -50 c0 -49 -1 -50 -30 -50
l-30 0 0 -140 0 -140 30 0 c28 0 30 -2 30 -40 l0 -40 -4205 0 -4205 0 0 95 0
95 -40 0 c-39 0 -40 1 -40 35 0 34 -1 35 -40 35 l-40 0 0 50 0 50 -265 0 -265
0 0 -50 0 -50 -45 0 c-45 0 -45 0 -45 -35 0 -33 -2 -35 -35 -35 l-35 0 0 -55
0 -55 -45 0 -45 0 0 -85 c0 -84 0 -85 -25 -85 -23 0 -25 -4 -25 -45 l0 -45
-45 0 -45 0 0 -45 c0 -45 0 -45 -35 -45 -35 0 -35 0 -35 -45 0 -45 0 -45 -35
-45 -34 0 -35 -1 -35 -40 l0 -40 -80 0 -80 0 0 40 0 40 40 0 40 0 0 90 0 90
-40 0 -40 0 0 45 0 45 -115 0 -115 0 0 45 0 45 40 0 40 0 0 180 0 180 -40 0
-40 0 0 85 c0 78 -2 85 -20 85 -17 0 -20 7 -20 40 l0 40 -40 0 -40 0 0 -40z
m-10210 -260 l0 -50 40 0 c39 0 40 -1 40 -35 0 -34 -1 -35 -40 -35 l-40 0 0
-95 0 -95 -80 0 -80 0 0 -45 0 -45 80 0 80 0 0 -90 0 -90 40 0 40 0 0 -45 0
-45 -40 0 -40 0 0 -40 0 -40 -80 0 -80 0 0 40 0 40 -75 0 -75 0 0 90 0 90 -40
0 -40 0 0 45 0 45 -40 0 -40 0 0 45 0 45 40 0 40 0 0 40 0 40 40 0 40 0 0 90
0 90 75 0 75 0 0 50 0 50 80 0 80 0 0 -50z m20590 0 l0 -50 75 0 75 0 0 -90 0
-90 40 0 40 0 0 -40 0 -40 40 0 40 0 0 -45 0 -45 -40 0 -40 0 0 -45 0 -45 -40
0 -40 0 0 -90 0 -90 -75 0 -75 0 0 -40 0 -40 -80 0 -80 0 0 40 0 40 -40 0 -40
0 0 45 0 45 40 0 40 0 0 90 0 90 80 0 80 0 0 45 0 45 -80 0 -80 0 0 95 0 95
-40 0 c-39 0 -40 1 -40 35 0 34 1 35 40 35 l40 0 0 50 0 50 80 0 80 0 0 -50z
m-10260 -140 l0 -90 -80 0 -80 0 0 90 0 90 80 0 80 0 0 -90z m-10950 -130 c0
-39 -1 -40 -35 -40 -34 0 -35 1 -35 40 0 39 1 40 35 40 34 0 35 -1 35 -40z
m21740 0 c0 -39 -1 -40 -35 -40 -34 0 -35 1 -35 40 0 39 1 40 35 40 34 0 35
-1 35 -40z m-21970 -85 l0 -45 -120 0 -120 0 0 45 0 45 120 0 120 0 0 -45z
m22370 0 l0 -45 -120 0 -120 0 0 45 0 45 120 0 120 0 0 -45z m-22140 -90 c0
-45 0 -45 -35 -45 -35 0 -35 0 -35 45 0 45 0 45 35 45 35 0 35 0 35 -45z
m21740 0 c0 -45 0 -45 -35 -45 -35 0 -35 0 -35 45 0 45 0 45 35 45 35 0 35 0
35 -45z m-10950 -175 l0 -130 -35 0 -35 0 0 -55 0 -55 -80 0 -80 0 0 55 0 55
40 0 40 0 0 130 0 130 75 0 75 0 0 -130z m320 0 l0 -130 35 0 35 0 0 -55 0
-55 -75 0 -75 0 0 55 0 55 -40 0 -40 0 0 130 0 130 80 0 80 0 0 -130z"/>
<path d="M1770 7965 c0 -33 -2 -35 -35 -35 l-35 0 0 -95 0 -95 35 0 35 0 0 95
0 95 80 0 80 0 0 35 0 35 -80 0 -80 0 0 -35z"/>
<path d="M1700 7560 l0 -90 35 0 c35 0 35 0 35 -45 l0 -45 80 0 80 0 0 45 0
45 -80 0 -80 0 0 90 0 90 -35 0 -35 0 0 -90z"/>
<path d="M22360 7965 l0 -35 80 0 80 0 0 -95 0 -95 35 0 35 0 0 95 0 95 -35 0
c-33 0 -35 2 -35 35 l0 35 -80 0 -80 0 0 -35z"/>
<path d="M22520 7560 l0 -90 -80 0 -80 0 0 -45 0 -45 80 0 80 0 0 45 c0 45 0
45 35 45 l35 0 0 90 0 90 -35 0 -35 0 0 -90z"/>
</g>
</svg>
